<?xml version="1.0" encoding="utf-8"?>
<!-- Generator: Adobe Illustrator 21.0.1, SVG Export Plug-In . SVG Version: 6.00 Build 0)  -->
<svg version="1.1" id="Layer_1" xmlns="http://www.w3.org/2000/svg" xmlns:xlink="http://www.w3.org/1999/xlink" x="0px" y="0px"
	 viewBox="0 0 28.3 28.3" style="enable-background:new 0 0 28.3 28.3;" xml:space="preserve">
<style type="text/css">
	.st0{fill:#FFFFFF;}
</style>
<g>
	<g>
		<path class="st0" d="M11.1,23.2l1.6-1.6l0-0.1l0-0.1c0,0-0.2-0.1-0.3-0.1c0,0-0.1,0-0.2,0c-0.1,0-0.1,0-0.2,0.1
			c-0.1,0-0.1,0.1-0.2,0.2L10.4,23v-1.3c0-0.1,0-0.2-0.1-0.2c0-0.1-0.1-0.1-0.1-0.2c0,0-0.1-0.1-0.2-0.1c-0.1,0-0.1,0-0.2,0
			c-0.2,0-0.3,0-0.3,0.1v3.9l0,0.1l0.1,0h0.6l0.1,0l0-0.1v-1.9l1.5,1.8c0.1,0.1,0.1,0.1,0.2,0.2c0.1,0,0.2,0.1,0.3,0.1
			c0.1,0,0.3-0.1,0.4-0.1l0.1-0.1l0-0.1L11.1,23.2z M4.5,21.3c-0.1,0-0.1-0.1-0.2-0.1c0,0-0.1,0-0.1,0c-0.1,0-0.2,0-0.2,0.1v2.8
			l-1.9-2.7c-0.1-0.1-0.1-0.1-0.2-0.2c-0.1,0-0.2-0.1-0.3-0.1c-0.1,0-0.2,0-0.3,0l-0.1,0.1v3.9l0,0.1l0.1,0h0.5l0.1,0l0-0.1v-2.8
			l2,2.8l0.1,0h0.5l0.1,0l0-0.1v-3.5c0-0.1,0-0.2,0-0.2C4.6,21.4,4.5,21.4,4.5,21.3 M7.6,21.6c0-0.1-0.1-0.2-0.2-0.2
			c-0.1,0-0.2-0.1-0.3-0.1c-0.1,0-0.3,0-0.3,0.1l0,0l-1.6,3.9l0,0.1l0.1,0h0.6l0.1-0.1l0.4-1h1.6l0.4,1l0.1,0H9l0.1,0l0-0.1
			L7.6,21.6z M6.5,23.7l0.6-1.5l0.6,1.5H6.5z M23.3,24.7h-1.5v-1.2h1.4l0.1,0l0-0.1V23l0-0.1l-0.1,0h-1.4v-1h1.4
			c0.2,0,0.3,0,0.4-0.1c0.1-0.1,0.1-0.2,0.1-0.3v-0.1c0-0.1,0-0.1-0.1-0.1h-2.4l-0.1,0l0,0.1v3.9l0,0.1l0.1,0h2.5l0.1,0l0-0.1v-0.1
			c0-0.1,0-0.2-0.1-0.3C23.6,24.8,23.5,24.7,23.3,24.7 M19.9,24.7h-1.5v-1.2h1.4l0.1,0l0-0.1V23l0-0.1l-0.1,0h-1.4v-1h1.4
			c0.2,0,0.3,0,0.4-0.1c0.1-0.1,0.1-0.2,0.1-0.3v-0.1c0-0.1,0-0.1-0.1-0.1h-2.4l-0.1,0l0,0.1v3.9l0,0.1l0.1,0h2.6l0.1,0l0-0.1v-0.1
			c0-0.1,0-0.2-0.1-0.3C20.2,24.8,20,24.7,19.9,24.7 M27,24.8c-0.1-0.1-0.2-0.1-0.3-0.1h-1.4v-3c0-0.1,0-0.2,0-0.2
			c0-0.1-0.1-0.1-0.1-0.2c0,0-0.1-0.1-0.2-0.1c0,0-0.1,0-0.1,0c-0.1,0-0.3,0-0.3,0.1v3.9l0,0.1l0,0H27l0.1,0l0-0.1v-0.1
			C27.1,25,27,24.9,27,24.8 M16.7,21.3c-0.1,0-0.1-0.1-0.2-0.1c0,0-0.1,0-0.2,0c-0.1,0-0.3,0-0.3,0.1v1.6h-1.8v-1.2
			c0-0.1,0-0.2,0-0.2c0-0.1-0.1-0.1-0.1-0.2c0,0-0.1-0.1-0.2-0.1c-0.1,0-0.1,0-0.2,0c-0.1,0-0.3,0-0.3,0.1v3.9l0,0.1l0.1,0h0.6
			l0.1,0l0-0.1v-1.7h1.8v1.7l0,0.1l0.1,0h0.6l0.1,0l0-0.1v-3.5c0-0.1,0-0.2,0-0.2C16.8,21.4,16.7,21.4,16.7,21.3 M15.2,8.8L15.2,8.8
			L15.2,8.8c1.2,0,0.5-0.8,1.3-0.8h0l0,0C15.5,7.7,15.3,8.3,15.2,8.8 M8.7,17.1L8.7,17.1c-0.6-0.9-0.9-2.1-0.9-3.3
			c0.1-2.6,1.6-4.3,4.6-5.4c2.1-0.8,3.1-1.2,3.2-2.2c0-0.6-0.5-1.3-0.6-1.4h0c0.7,1.7-1.8,2.4-3.4,3.1c-2.2,0.8-3.9,2.8-4,5.2
			C7.4,14.6,7.9,16,8.7,17.1L8.7,17.1 M15.4,16.7L15.4,16.7c-0.5,0.7-1.6,1-2.4,0.5h0v0C13.7,18.7,15.5,17.8,15.4,16.7L15.4,16.7
			 M12.7,7c0.6-0.3,1.9-0.9,1.9-2c0.1-0.7-0.6-1.3-0.8-1.4h0v0c1.3,1.6-2.3,3.5-3.4,4.5v0l0,0C10.5,8,11.6,7.4,12.7,7 M11.6,6.5
			c0.2-0.1,0.3-0.2,0.4-0.3c2-1.4,1.7-2.7,0.6-3.2h0v0C13.7,4.5,11.9,6.2,11.6,6.5L11.6,6.5L11.6,6.5 M16.8,11.1L16.8,11.1
			c1.2,0,0.5-0.8,1.3-0.8l0,0h0C17.1,9.9,16.9,10.6,16.8,11.1 M19.3,15.7L19.3,15.7L19.3,15.7L19.3,15.7c-1.1,1.8-3.2,3-5.8,2.8
			C11.1,18.4,9,16.4,9.1,14c0-1.8,0.7-2.6,1.2-2.9c-0.2,0.4-1.1,2.8,0.4,4.5c1.1,1.2,2.9,1.1,3.8,0.4c0.4,0.1,0.8,0.2,1.3,0.2
			c1.8,0.1,3.3-1,3.4-2.3c0.1-1.6-1.5-2.6-3.4-2.7c-0.3,0-0.7,0-1,0.1c0.6-1.5,2-1.6,2.4-1.6c1.4,0.1,1.9,1,2.1,1.3l0,0v0
			c-0.4-1-1.4-1.8-2.7-1.8c-1.6-0.1-3,1.2-3.1,2.8c0,0.3,0,0.5,0.1,0.8v0l0,0c0-0.1,0.1-0.1,0.1-0.2c0.4-0.5,1.1-0.8,1.9-0.7
			c1.2,0,2.3,0.9,2.3,1.9c0,1-1.2,1.9-2.4,1.8c-1.5-0.1-2.9-1.5-2.9-3c0-0.4,0.1-0.7,0.2-1v0h0c-0.5,0.5-0.7,1-0.8,1.7
			c0,0.9,0.6,2,1.7,2.6c-0.9,0.4-3.3-0.4-3.3-2.9c0.1-1.8,1.2-3.5,2.7-3.8v0h0c-3.1,0.5-5,2.5-5.1,5.2c-0.1,2.8,2.3,5.3,5.2,5.4
			C16.9,19.7,18.7,17.3,19.3,15.7"/>
	</g>
</g>
</svg>
